<?xml version="1.0" standalone="no"?>
<!DOCTYPE svg PUBLIC "-//W3C//DTD SVG 20010904//EN"
 "http://www.w3.org/TR/2001/REC-SVG-20010904/DTD/svg10.dtd">
<svg version="1.0" xmlns="http://www.w3.org/2000/svg"
 width="512.000000pt" height="512.000000pt" viewBox="0 0 512.000000 512.000000"
 preserveAspectRatio="xMidYMid meet">

<g transform="translate(0.000000,512.000000) scale(0.100000,-0.100000)"
fill="#000000" stroke="none">
<path d="M1660 4860 c-875 -5 -948 -6 -990 -23 -142 -56 -252 -177 -297 -322
-17 -57 -18 -142 -18 -1770 l0 -1710 23 -65 c29 -86 58 -131 123 -197 54 -54
159 -114 225 -128 28 -5 34 -13 53 -72 43 -132 138 -232 269 -285 l57 -23
1275 -3 c1250 -2 1276 -2 1340 18 83 25 128 53 196 121 67 65 118 164 133 256
8 45 11 197 9 451 l-3 384 -24 19 c-44 36 -100 19 -121 -35 -6 -17 -10 -171
-10 -416 0 -373 -1 -392 -21 -447 -26 -68 -92 -138 -164 -173 l-50 -25 -1265
0 -1265 0 -46 21 c-63 29 -116 79 -145 135 -13 27 -24 51 -24 54 0 3 510 5
1133 5 706 0 1158 4 1202 10 176 26 333 160 386 331 16 51 19 93 19 260 0 186
-1 200 -20 219 -27 27 -81 26 -106 -1 -17 -19 -20 -43 -24 -223 -5 -187 -7
-204 -30 -251 -34 -70 -108 -139 -175 -164 -55 -21 -65 -21 -1295 -21 -1232 0
-1240 0 -1295 21 -77 29 -155 106 -183 182 l-22 58 0 1693 c0 1468 2 1699 15
1742 22 74 79 141 155 183 l65 36 897 3 897 2 3 -378 3 -378 30 -59 c19 -37
46 -72 73 -92 78 -60 106 -63 504 -63 l358 0 0 -379 c0 -368 1 -379 21 -405
26 -33 79 -36 109 -6 19 19 20 35 22 438 1 229 1 428 0 442 -2 34 -995 1027
-1032 1032 -14 2 -450 1 -970 -2z m1387 -612 c189 -189 343 -347 343 -351 0
-5 -136 -7 -303 -5 -423 4 -391 -28 -394 395 -1 167 1 303 5 303 4 0 161 -154
349 -342z"/>
<path d="M935 4355 l-25 -24 0 -409 c0 -397 1 -409 20 -430 l21 -22 589 0 589
0 20 26 c20 26 21 37 21 431 l0 404 -25 24 -24 25 -581 0 -581 0 -24 -25z
m1083 -432 l2 -303 -480 0 -480 0 0 305 0 305 478 -2 477 -3 3 -302z"/>
<path d="M3933 3496 l-28 -24 -3 -250 c-2 -204 0 -257 12 -286 17 -40 52 -55
95 -40 47 17 51 39 51 312 l0 254 -29 29 c-36 35 -61 37 -98 5z"/>
<path d="M981 2973 c-32 -27 -37 -73 -11 -106 l21 -27 1019 0 1019 0 20 26
c12 15 21 33 21 40 0 26 -23 62 -47 73 -17 8 -312 11 -1022 11 -937 0 -1000
-1 -1020 -17z"/>
<path d="M3615 2820 c-219 -22 -435 -111 -633 -260 -95 -71 -271 -252 -295
-303 -17 -35 -17 -39 0 -74 23 -49 239 -265 326 -327 471 -331 1008 -317 1460
37 83 65 210 192 260 258 56 75 28 130 -156 305 -280 266 -627 397 -962 364z
m360 -185 c193 -56 372 -166 530 -325 l90 -90 -90 -90 c-457 -459 -1040 -480
-1517 -54 -33 30 -78 74 -100 99 l-39 45 38 45 c45 55 172 164 251 218 122 82
291 152 426 177 28 5 112 7 186 5 109 -2 152 -8 225 -30z"/>
<path d="M3629 2577 c-67 -19 -131 -60 -182 -117 -123 -136 -121 -347 3 -483
115 -126 280 -159 436 -86 146 69 233 255 194 418 -26 109 -125 219 -230 256
-62 22 -165 28 -221 12z m195 -171 c85 -46 131 -145 108 -233 -37 -138 -185
-205 -309 -141 -71 36 -107 92 -111 176 -3 56 0 74 20 112 58 107 186 145 292
86z"/>
<path d="M1000 2527 c-13 -7 -31 -24 -39 -38 -19 -33 -1 -81 35 -98 38 -17
1530 -15 1564 2 55 28 52 109 -5 133 -47 19 -1516 21 -1555 1z"/>
<path d="M971 2054 c-28 -35 -26 -69 4 -99 l24 -25 774 0 c768 0 775 0 801 21
34 27 36 77 3 107 l-23 22 -781 0 -782 0 -20 -26z"/>
<path d="M975 1605 c-30 -30 -32 -64 -4 -99 l20 -26 1015 0 1015 0 24 25 c14
13 25 31 25 40 0 24 -27 72 -45 79 -9 3 -469 6 -1021 6 l-1005 0 -24 -25z"/>
</g>
</svg>
